<svg xmlns="http://www.w3.org/2000/svg" width="133" height="31" fill="none"><path fill="#000" d="M10.56 21.46c0 .59-.17 1.08-.52 1.48-.35.4-.81.6-1.4.6H4.68v6.96H.32V.66h8.04c.61 0 1.13.21 1.56.64.43.4.64.9.64 1.52v18.64ZM4.68 3.86v16.52h1.56V3.86H4.68ZM22.42.66h8.08a2 2 0 0 1 1.52.64c.43.4.64.9.64 1.52v9.48c0 .59-.19 1.08-.56 1.48-.37.4-.83.63-1.36.68.53.05.99.3 1.36.72.37.43.56.9.56 1.44V30.5h-4.32V16.06h-1.56V30.5h-4.36V.66Zm4.36 3.2v9h1.56v-9h-1.56ZM51.96 30.5l-.48-6.92h-2.4l-.44 6.92H44.4L47.56.66H53l3.2 29.84h-4.24Zm-2.68-10.12h2l-1-15.16-1 15.16ZM86.1.66 83.58 30.5h-5.32l-1.44-18-1.4 18h-5.36L67.58.66h4.64l.52 18.48L74.78.66h4.12l2 18.48.56-18.48h4.64Zm19.96 9.56c.56 0 1.04.2 1.44.6.43.4.64.9.64 1.48l-.08 18.2h-4.32l.08-17.12h-1.84V30.5h-4.36V.66h4.36v9.16l2.24-9.16h4.76l-4.12 9.56h1.2Zm21.88 20.28-.48-6.92h-2.4l-.44 6.92h-4.24L123.54.66h5.44l3.2 29.84h-4.24Zm-2.68-10.12h2l-1-15.16-1 15.16Z"/></svg>